# xmcd CD database file generated by Grip 3.0.7
# 
# Track frame offsets:
#       150
#       13332
#       27337
#       38732
#       49987
#       60987
#       72075
#       83725
#       95325
#       107612
#       120207
#       130812
#       144737
#       157162
#       169487
#       180175
#       190700
#       201025
#       213937
#       226900
# 
# Disc length: 3315 seconds
# 
# Revision: 3
# Processed by: cddbd v1.5PL3 Copyright (c) Steve Scherf et al.
# Submitted via: Grip 3.0.7
# 
DISCID=090cf114
DTITLE=Elmore James - Rolling and Tumbling
DYEAR=1987
DGENRE=Blues
TTITLE0=Dust My Broom
TTITLE1=It Hurts Me Too
TTITLE2=Shake Your Money Maker
TTITLE3=Rolling and Tumbling
TTITLE4=Coming Home
TTITLE5=Person to Person
TTITLE6=I Can't Hold Out
TTITLE7=Fine Little Mama
TTITLE8=The Sky Is Crying
TTITLE9=I Need You
TTITLE10=Take Me Where You Go
TTITLE11=The 12 Year Old Boy
TTITLE12=Cry For Me Baby
TTITLE13=Gotta Move
TTITLE14=One Way Out
TTITLE15=Done Somebody Wrong
TTITLE16=Can't Stop Loving My Baby
TTITLE17=Baby Please Set a Date
TTITLE18=Held My Baby Last Night
TTITLE19=Something Inside
EXTD=
EXTT0=
EXTT1=
EXTT2=
EXTT3=
EXTT4=
EXTT5=
EXTT6=
EXTT7=
EXTT8=
EXTT9=
EXTT10=
EXTT11=
EXTT12=
EXTT13=
EXTT14=
EXTT15=
EXTT16=
EXTT17=
EXTT18=
EXTT19=
PLAYORDER=
